#!OML:ASF E:\acrobat2\Project_11_07_03\Capture day 1\Session 1\Acrobat.ASF
:FULLY-SPECIFIED
:DEGREES
167
root 8.19144 18.0071 -13.9527 9.46408 4.02067 -2.67529
lowerback 11.7856 1.76056 -0.719434
upperback 8.87 2.29052 -1.67411
thorax 2.7299 1.17015 -1.54583
lowerneck 1.67937 1.78912 -0.0485401
upperneck -13.5686 2.61923 1.19908
head -4.8241 1.25369 0.291831
rclavicle 2.50469e-014 -9.54166e-015
rhumerus -29.968 21.1649 -89.7189
rradius 37.6531
rwrist -9.51092
rhand 17.686 -31.9885
rfingers 7.12502
rthumb 42.3736 -56.4521
lclavicle 2.50469e-014 -9.54166e-015
lhumerus -18.5626 -15.0583 80.1834
lradius 30.2216
lwrist 21.6441
lhand 8.98227 -15.8715
lfingers 7.12502
lthumb 34.1604 10.8765
rfemur -12.622 -3.49107 25.532
rtibia 18.1414
rfoot -21.881 -14.1846
rtoes 1.28532
lfemur -27.6458 -3.18362 -13.4373
ltibia 33.5432
lfoot -12.6157 -6.17143
ltoes 22.8874
168
root 8.20326 17.9946 -13.9334 9.61208 3.89832 -2.61115
lowerback 11.9898 1.79353 -0.895256
upperback 8.96756 2.31673 -1.77553
thorax 2.72275 1.17837 -1.56076
lowerneck 1.81314 1.80394 -0.0967397
upperneck -13.9075 2.63489 1.12651
head -4.97759 1.26583 0.27217
rclavicle -2.26615e-014 3.26007e-014
rhumerus -29.517 20.8979 -89.5107
rradius 37.6615
rwrist -9.28001
rhand 17.7788 -32.2864
rfingers 7.12502
rthumb 42.4605 -56.7203
lclavicle -2.26615e-014 3.26007e-014
lhumerus -17.9934 -15.0559 79.9746
lradius 29.7592
lwrist 21.4842
lhand 9.21502 -15.7142
lfingers 7.12502
lthumb 34.3814 10.9841
rfemur -13.3077 -3.67948 25.4268
rtibia 19.1933
rfoot -22.1727 -13.9288
rtoes 1.13343
lfemur -27.8722 -3.32787 -13.5682
ltibia 33.8684
lfoot -12.9231 -6.13484
ltoes 22.7915
169
root 8.21553 17.9809 -13.9138 9.75731 3.76867 -2.54016
lowerback 12.1977 1.81915 -1.07889
upperback 9.06383 2.33161 -1.87176
thorax 2.71176 1.18031 -1.56522
lowerneck 1.93154 1.82095 -0.153929
upperneck -14.6095 2.65583 1.05676
head -4.71116 1.2768 0.226164
rclavicle -4.49253e-014 3.18055e-014
rhumerus -29.0568 20.6672 -89.304
rradius 37.6786
rwrist -9.06252
rhand 17.7894 -32.5827
rfingers 7.12502
rthumb 42.4705 -57.0131
lclavicle -4.49253e-014 3.18055e-014
lhumerus -17.4049 -15.1113 79.7794
lradius 29.2771
lwrist 21.3608
lhand 9.46188 -15.5747
lfingers 7.12502
lthumb 34.6158 11.0703
rfemur -13.9982 -3.8351 25.3087
rtibia 20.2823
rfoot -22.5403 -13.626
rtoes 1.3819
lfemur -28.0913 -3.45834 -13.7058
ltibia 34.1912
lfoot -13.2144 -6.1228
ltoes 22.7944
170
root 8.22795 17.9664 -13.8947 9.90404 3.6389 -2.48542
lowerback 12.4128 1.83829 -1.24551
upperback 9.15187 2.33817 -1.9593
thorax 2.6885 1.17854 -1.56989
lowerneck 2.03247 1.84239 -0.169724
upperneck -14.9073 2.66643 0.884847
head -4.81756 1.29155 0.17252
rclavicle 2.42517e-014 1.98785e-014
rhumerus -28.5793 20.4704 -89.1038
rradius 37.6731
rwrist -8.84296
rhand 17.6917 -32.7931
rfingers 7.12502
rthumb 42.379 -57.2549
lclavicle 2.42517e-014 1.98785e-014
lhumerus -16.8069 -15.2409 79.5983
lradius 28.7842
lwrist 21.2714
lhand 9.69991 -15.4447
lfingers 7.12502
lthumb 34.8417 11.1481
rfemur -14.7075 -3.95063 25.2087
rtibia 21.405
rfoot -22.9314 -13.3123
rtoes 1.8348
lfemur -28.3293 -3.55966 -13.8213
ltibia 34.5331
lfoot -13.4853 -6.13005
ltoes 22.8367
171
root 8.24031 17.9513 -13.8768 10.0597 3.50948 -2.46173
lowerback 12.6184 1.85347 -1.37705
upperback 9.23342 2.34197 -2.03742
thorax 2.66449 1.17666 -1.58399
lowerneck 2.15759 1.85388 -0.147114
upperneck -15.1945 2.65872 0.669457
head -4.9238 1.29807 0.0996142
rclavicle 1.78906e-014 -5.00937e-014
rhumerus -28.0853 20.2795 -88.9069
rradius 37.645
rwrist -8.59205
rhand 17.4998 -32.8692
rfingers 7.12502
rthumb 42.1993 -57.3921
lclavicle 1.78906e-014 -5.00937e-014
lhumerus -16.1944 -15.4469 79.4302
lradius 28.2933
lwrist 21.2085
lhand 9.8861 -15.305
lfingers 7.12502
lthumb 35.0183 11.2467
rfemur -15.4503 -4.0209 25.1485
rtibia 22.5531
rfoot -23.2801 -13.0358
rtoes 2.17001
lfemur -28.6039 -3.61271 -13.8965
ltibia 34.9021
lfoot -13.7296 -6.16026
ltoes 22.9687
172
root 8.2525 17.9359 -13.8602 10.2218 3.38482 -2.47635
lowerback 12.81 1.86325 -1.46268
upperback 9.3137 2.3427 -2.10493
thorax 2.64809 1.17503 -1.61201
lowerneck 2.30914 1.85741 -0.0977996
upperneck -15.4773 2.63692 0.426896
head -5.03258 1.29818 0.0141159
rclavicle 2.18663e-014 -1.59028e-014
rhumerus -27.5724 20.076 -88.7109
rradius 37.5981
rwrist -8.292
rhand 17.2334 -32.8211
rfingers 7.12502
rthumb 41.9496 -57.4279
lclavicle 2.18663e-014 -1.59028e-014
lhumerus -15.5685 -15.6958 79.2749
lradius 27.8189
lwrist 21.1195
lhand 9.98073 -15.1277
lfingers 7.12502
lthumb 35.1081 11.4031
rfemur -16.2211 -4.05774 25.1387
rtibia 23.7092
rfoot -23.5449 -12.8256
rtoes 2.158
lfemur -28.9127 -3.61281 -13.923
ltibia 35.2977
lfoot -13.9549 -6.20457
ltoes 23.0982
173
root 8.26464 17.9205 -13.8449 10.3825 3.27261 -2.51806
lowerback 13.0024 1.86336 -1.51121
upperback 9.39151 2.33377 -2.16368
thorax 2.62961 1.17005 -1.65079
lowerneck 2.47712 1.86616 -0.0290245
upperneck -15.7449 2.61869 0.158771
head -5.13907 1.30104 -0.0830285
rclavicle 4.49253e-014 -4.37326e-014
rhumerus -27.0442 19.8599 -88.5237
rradius 37.5284
rwrist -7.94547
rhand 16.9087 -32.7173
rfingers 7.12502
rthumb 41.6451 -57.4251
lclavicle 4.49253e-014 -4.37326e-014
lhumerus -14.9399 -15.9676 79.1348
lradius 27.3555
lwrist 20.9643
lhand 9.92934 -14.9386
lfingers 7.12502
lthumb 35.0593 11.6036
rfemur -17.004 -4.08304 25.1638
rtibia 24.8588
rfoot -23.7171 -12.6878
rtoes 1.75041
lfemur -29.2398 -3.5734 -13.9151
ltibia 35.7097
lfoot -14.1695 -6.2561
ltoes 23.1287
174
root 8.27705 17.9056 -13.8306 10.5334 3.17503 -2.55884
lowerback 13.2066 1.85438 -1.54912
upperback 9.47286 2.31345 -2.21778
thorax 2.60879 1.15978 -1.68984
lowerneck 2.65332 1.88191 0.068924
upperneck -16.0177 2.60489 -0.153025
head -5.24785 1.30776 -0.199217
rclavicle 2.66371e-014 -2.94201e-014
rhumerus -26.4985 19.629 -88.3453
rradius 37.4347
rwrist -7.56639
rhand 16.5229 -32.61
rfingers 7.12502
rthumb 41.2832 -57.4358
lclavicle 2.66371e-014 -2.94201e-014
lhumerus -14.2953 -16.2605 79.011
lradius 26.8877
lwrist 20.7309
lhand 9.6983 -14.7674
lfingers 7.12502
lthumb 34.8401 11.8259
rfemur -17.7864 -4.1262 25.1894
rtibia 26.009
rfoot -23.7985 -12.6188
rtoes 0.899507
lfemur -29.5617 -3.51482 -13.9095
ltibia 36.1195
lfoot -14.3718 -6.31494
ltoes 23.084
175
root 8.29005 17.8913 -13.8166 10.6659 3.09407 -2.57245
lowerback 13.44 1.83982 -1.59649
upperback 9.5574 2.28393 -2.27491
thorax 2.57579 1.14466 -1.72668
lowerneck 2.84127 1.89991 0.197618
upperneck -16.3102 2.58995 -0.503087
head -5.36398 1.31527 -0.333026
rclavicle 3.97569e-015 -1.27222e-014
rhumerus -25.9399 19.3849 -88.1771
rradius 37.3202
rwrist -7.18219
rhand 16.0864 -32.5331
rfingers 7.12502
rthumb 40.8733 -57.4896
lclavicle 3.97569e-015 -1.27222e-014
lhumerus -13.6287 -16.5943 78.9
lradius 26.41
lwrist 20.4207
lhand 9.31413 -14.6092
lfingers 7.12502
lthumb 34.4755 12.0677
rfemur -18.5567 -4.21487 25.1838
rtibia 27.1762
rfoot -23.8006 -12.5982
rtoes -0.356053
lfemur -29.8535 -3.45658 -13.9412
ltibia 36.5029
lfoot -14.5529 -6.38428
ltoes 23.0308
176
root 8.304 17.8778 -13.8025 10.7758 3.03087 -2.53691
lowerback 13.7161 1.81995 -1.66459
upperback 9.64011 2.24371 -2.3464
thorax 2.5181 1.12381 -1.76713
lowerneck 3.02554 1.91574 0.334608
upperneck -16.58 2.57316 -0.841623
head -5.47275 1.32132 -0.46476
rclavicle -2.82274e-014 5.56597e-015
rhumerus -25.3758 19.1346 -88.0265
rradius 37.1913
rwrist -6.82372
rhand 15.6179 -32.522
rfingers 7.12502
rthumb 40.433 -57.616
lclavicle -2.82274e-014 5.56597e-015
lhumerus -12.9443 -17.0065 78.7904
lradius 25.9237
lwrist 20.0693
lhand 8.82145 -14.4531
lfingers 7.12502
lthumb 34.0077 12.329
rfemur -19.3067 -4.35759 25.114
rtibia 28.3682
rfoot -23.7484 -12.5729
rtoes -1.70547
lfemur -30.0978 -3.40915 -14.0427
ltibia 36.8445
lfoot -14.7053 -6.47366
ltoes 23.0167
177
root 8.31888 17.8653 -13.7882 10.8665 2.9779 -2.45798
lowerback 14.026 1.79868 -1.74742
upperback 9.726 2.1987 -2.43163
thorax 2.44643 1.10045 -1.81412
lowerneck 3.19628 1.91979 0.466458
upperneck -16.8069 2.5447 -1.14076
head -5.56675 1.31983 -0.582552
rclavicle 1.19271e-014 -3.97569e-014
rhumerus -24.7855 18.885 -87.8859
rradius 37.0378
rwrist -6.50599
rhand 15.1077 -32.5521
rfingers 7.12502
rthumb 39.953 -57.7923
lclavicle 1.19271e-014 -3.97569e-014
lhumerus -12.2247 -17.4999 78.6755
lradius 25.4274
lwrist 19.6895
lhand 8.26018 -14.2709
lfingers 7.12502
lthumb 33.4744 12.628
rfemur -20.0501 -4.53159 24.9819
rtibia 29.6018
rfoot -23.6549 -12.5053
rtoes -2.84649
lfemur -30.2982 -3.36217 -14.2083
ltibia 37.1501
lfoot -14.8339 -6.5802
ltoes 23.0021
178
root 8.33418 17.8541 -13.7745 10.9493 2.92642 -2.3686
lowerback 14.3549 1.78017 -1.81906
upperback 9.81598 2.15732 -2.52156
thorax 2.37034 1.07968 -1.87312
lowerneck 3.37204 1.91808 0.613724
upperneck -17.0297 2.5094 -1.43765
head -5.6605 1.31436 -0.702165
rclavicle -8.74653e-015 -7.95139e-016
rhumerus -24.1486 18.649 -87.7449
rradius 36.8487
rwrist -6.23061
rhand 14.5477 -32.5754
rfingers 7.12502
rthumb 39.4258 -57.9721
lclavicle -8.74653e-015 -7.95139e-016
lhumerus -11.4545 -18.0555 78.5527
lradius 24.9207
lwrist 19.2775
lhand 7.66538 -14.0418
lfingers 7.12502
lthumb 32.9088 12.9776
rfemur -20.8198 -4.69929 24.8296
rtibia 30.9005
rfoot -23.5112 -12.4075
rtoes -3.76221
lfemur -30.4801 -3.29764 -14.3924
ltibia 37.4362
lfoot -14.9465 -6.69635
ltoes 22.9741
179
root 8.34975 17.8439 -13.7616 11.031 2.86933 -2.28744
lowerback 14.6909 1.76421 -1.86399
upperback 9.91041 2.12149 -2.61224
thorax 2.29694 1.06303 -1.9486
lowerneck 3.52109 1.91818 0.731029
upperneck -17.182 2.48313 -1.67314
head -5.72902 1.31117 -0.797333
rclavicle -9.54166e-015 1.90833e-014
rhumerus -23.4646 18.4318 -87.6005
rradius 36.6337
rwrist -5.98333
rhand 13.9346 -32.5625
rfingers 7.12502
rthumb 38.8478 -58.1259
lclavicle -9.54166e-015 1.90833e-014
lhumerus -10.6304 -18.6512 78.4185
lradius 24.4026
lwrist 18.829
lhand 7.05414 -13.7756
lfingers 7.12502
lthumb 32.3272 13.3642
rfemur -21.6372 -4.84005 24.6832
rtibia 32.2747
rfoot -23.292 -12.3235
rtoes -4.6244
lfemur -30.6583 -3.21272 -14.5696
ltibia 37.7144
lfoot -15.0482 -6.81459
ltoes 22.9718
180
root 8.36555 17.8346 -13.7496 11.1092 2.79678 -2.22317
lowerback 15.0229 1.75131 -1.88316
upperback 10.0168 2.0926 -2.69784
thorax 2.23982 1.0509 -2.03373
lowerneck 3.55943 1.93562 0.758182
upperneck -17.149 2.49226 -1.78324
head -5.72314 1.32187 -0.83704
rclavicle 9.54166e-015 3.18055e-015
rhumerus -22.709 18.2481 -87.4467
rradius 36.377
rwrist -5.75607
rhand 13.2692 -32.4929
rfingers 7.12502
rthumb 38.22 -58.2319
lclavicle 9.54166e-015 3.18055e-015
lhumerus -9.75643 -19.2447 78.2757
lradius 23.8771
lwrist 18.3049
lhand 6.42586 -13.4982
lfingers 7.12502
lthumb 31.729 13.7617
rfemur -22.5054 -4.93637 24.5527
rtibia 33.7285
rfoot -22.9871 -12.2873
rtoes -5.42708
lfemur -30.8287 -3.11078 -14.7279
ltibia 37.9845
lfoot -15.1491 -6.91386
ltoes 22.9665
181
root 8.38152 17.8258 -13.7385 11.1824 2.70709 -2.18177
lowerback 15.3504 1.73938 -1.87959
upperback 10.1373 2.06792 -2.77253
thorax 2.20127 1.04159 -2.12036
lowerneck 3.41804 1.9764 0.697054
upperneck -16.8553 2.54309 -1.78293
head -5.60716 1.34993 -0.824764
rclavicle -4.21423e-014 -2.38542e-015
rhumerus -21.9211 18.0954 -87.2863
rradius 36.109
rwrist -5.52893
rhand 12.5512 -32.3602
rfingers 7.12502
rthumb 37.5418 -58.2826
lclavicle -4.21423e-014 -2.38542e-015
lhumerus -8.84541 -19.8209 78.1272
lradius 23.3558
lwrist 17.6938
lhand 5.77426 -13.2331
lfingers 7.12502
lthumb 31.1082 14.1477
rfemur -23.4217 -4.97562 24.4427
rtibia 35.2536
rfoot -22.6081 -12.2877
rtoes -5.96835
lfemur -30.9897 -2.99986 -14.8584
ltibia 38.246
lfoot -15.2605 -6.98482
ltoes 22.9221
